<svg width="1361" height="546" viewBox="0 0 1361 546" fill="none" xmlns="http://www.w3.org/2000/svg">
<path d="M1361 2H146.737H139.572H2V544H73.652L87.9824 206.564C84.1609 159.884 113.682 66.5238 262.336 66.5238C410.99 66.5238 446.242 142.678 445.287 180.755V544H526.493C526.015 446.816 525.346 238.109 526.493 180.755C527.926 109.062 568.051 66.5238 702.279 66.5238C809.662 66.5238 846.061 142.678 850.838 180.755V544H954.016V180.755C955.927 144.59 992.04 71.1122 1121.2 66.5238C1250.37 61.9355 1287.44 140.766 1289.83 180.755V544H1361V2Z" stroke="#A8A6A5" stroke-opacity="0.1" stroke-width="3"/>
</svg>
